<svg width="20" height="27" viewBox="0 0 20 27" fill="none" xmlns="http://www.w3.org/2000/svg">
<path fill-rule="evenodd" clip-rule="evenodd" d="M10.0932 1.5C7.50594 1.5 5.40858 3.58029 5.40858 6.14646C5.40858 8.71263 7.50594 10.7929 10.0932 10.7929C12.6804 10.7929 14.7777 8.71263 14.7777 6.14646C14.7777 3.58029 12.6804 1.5 10.0932 1.5ZM3.89627 6.14646C3.89627 2.75186 6.67071 0 10.0932 0C13.5156 0 16.29 2.75186 16.29 6.14646C16.29 9.54106 13.5156 12.2929 10.0932 12.2929C6.67071 12.2929 3.89627 9.54106 3.89627 6.14646ZM9.86543 15C7.64009 15 5.48545 15.5476 4.23563 16.374C1.17123 18.4004 0.724575 22.241 2.71868 25.5H17.0121C19.0062 22.241 18.5596 18.4003 15.4952 16.374C14.2454 15.5476 12.0907 15 9.86543 15ZM3.39676 15.126C4.97558 14.082 7.45586 13.5 9.86544 13.5C12.275 13.5 14.7552 14.082 16.334 15.126C20.3759 17.7986 20.6278 22.8399 18.0561 26.666C17.9158 26.8747 17.6797 27 17.4269 27H2.30384C2.05102 27 1.81493 26.8747 1.67469 26.666C-0.897007 22.8399 -0.645087 17.7986 3.39676 15.126Z" fill="black"/>
</svg>
