<svg width="33" height="27" viewBox="0 0 33 27" fill="none" xmlns="http://www.w3.org/2000/svg">
<path fill-rule="evenodd" clip-rule="evenodd" d="M0 0.84375C0 0.37776 0.37776 0 0.84375 0H5.20726C5.8536 0 6.6065 0.255385 7.04348 0.94542C7.42576 1.54908 7.7643 2.31177 7.99985 2.89496C8.07047 3.06979 8.13339 3.23242 8.18706 3.375H30.3471C32.1643 3.375 33.3895 5.23307 32.6737 6.90336L29.0576 15.3409C28.6587 16.2716 27.7436 16.875 26.731 16.875H12.2416C11.1115 16.875 10.1183 16.1258 9.80778 15.0391L6.78791 4.46961C6.78399 4.45805 6.77799 4.44048 6.77002 4.41746C6.7539 4.37085 6.72977 4.30203 6.69857 4.21568C6.63608 4.04268 6.54577 3.80078 6.43517 3.52696C6.20938 2.96796 5.91636 2.3197 5.61781 1.84826C5.5759 1.78208 5.45604 1.6875 5.20726 1.6875H0.84375C0.37776 1.6875 0 1.30974 0 0.84375ZM8.71234 5.0625L11.4303 14.5755C11.5338 14.9378 11.8649 15.1875 12.2416 15.1875H26.731C27.0685 15.1875 27.3736 14.9864 27.5065 14.6761L31.1226 6.23862C31.3612 5.68186 30.9528 5.0625 30.3471 5.0625H8.71234ZM14.3438 20.25C12.9458 20.25 11.8125 21.3833 11.8125 22.7813C11.8125 24.1792 12.9458 25.3125 14.3438 25.3125C15.7417 25.3125 16.875 24.1792 16.875 22.7813C16.875 21.3833 15.7417 20.25 14.3438 20.25ZM10.125 22.7813C10.125 20.4513 12.0138 18.5625 14.3438 18.5625C16.6737 18.5625 18.5625 20.4513 18.5625 22.7813C18.5625 25.1112 16.6737 27 14.3438 27C12.0138 27 10.125 25.1112 10.125 22.7813ZM26.1563 20.25C24.7583 20.25 23.625 21.3833 23.625 22.7813C23.625 24.1792 24.7583 25.3125 26.1563 25.3125C27.5542 25.3125 28.6875 24.1792 28.6875 22.7813C28.6875 21.3833 27.5542 20.25 26.1563 20.25ZM21.9375 22.7813C21.9375 20.4513 23.8263 18.5625 26.1563 18.5625C28.4862 18.5625 30.375 20.4513 30.375 22.7813C30.375 25.1112 28.4862 27 26.1563 27C23.8263 27 21.9375 25.1112 21.9375 22.7813Z" fill="black"/>
</svg>
