<svg width="111" height="24" viewBox="0 0 111 24" fill="none" xmlns="http://www.w3.org/2000/svg">
<path d="M4.39224 10.2102V2.92297H0.068409V0.188578H12.5415V2.92297H8.21769V10.2102H4.39224Z" fill="#AF4425"/>
<path d="M21.5016 0H22.1078C22.9968 0 23.805 0.0628595 24.5324 0.188578C25.2687 0.305318 25.8838 0.462466 26.3777 0.660024C26.8806 0.848603 27.3161 1.08657 27.6843 1.37393C28.0615 1.65231 28.3578 1.93517 28.5733 2.22253C28.7888 2.50989 28.9595 2.82419 29.0852 3.16542C29.2199 3.50666 29.3052 3.81647 29.3411 4.09485C29.386 4.37322 29.4085 4.66507 29.4085 4.97039V5.37449C29.4085 5.6798 29.386 5.97165 29.3411 6.25003C29.3052 6.52841 29.2199 6.8427 29.0852 7.19292C28.9595 7.53416 28.7888 7.85294 28.5733 8.14928C28.3668 8.43664 28.0749 8.724 27.6978 9.01135C27.3206 9.29871 26.8851 9.54117 26.3912 9.73873C25.8973 9.93629 25.2822 10.0934 24.5458 10.2102C23.8185 10.3359 23.0058 10.3988 22.1078 10.3988H21.5016C20.6036 10.3988 19.7865 10.3359 19.0501 10.2102C18.3227 10.0934 17.7076 9.93629 17.2047 9.73873C16.7108 9.54117 16.2753 9.29871 15.8982 9.01135C15.521 8.724 15.2247 8.43664 15.0091 8.14928C14.8026 7.85294 14.632 7.53416 14.4973 7.19292C14.3716 6.8427 14.2863 6.52841 14.2414 6.25003C14.2054 5.97165 14.1875 5.6798 14.1875 5.37449V4.97039C14.1875 4.66507 14.2054 4.37322 14.2414 4.09485C14.2863 3.81647 14.3716 3.50666 14.4973 3.16542C14.632 2.82419 14.8026 2.50989 15.0091 2.22253C15.2247 1.93517 15.521 1.65231 15.8982 1.37393C16.2753 1.08657 16.7108 0.848603 17.2047 0.660024C17.7076 0.462466 18.3227 0.305318 19.0501 0.188578C19.7865 0.0628595 20.6036 0 21.5016 0ZM25.4483 5.25326V5.06468C25.4483 4.76834 25.3944 4.49445 25.2867 4.24301C25.1789 3.9826 24.9948 3.73116 24.7344 3.4887C24.483 3.24624 24.1058 3.05317 23.6029 2.9095C23.1001 2.76582 22.4984 2.69398 21.798 2.69398C21.0796 2.69398 20.4689 2.76582 19.9661 2.9095C19.4632 3.05317 19.086 3.24624 18.8346 3.4887C18.5832 3.73116 18.4036 3.9826 18.2958 4.24301C18.197 4.49445 18.1476 4.76834 18.1476 5.06468V5.22632C18.1476 5.52265 18.2015 5.80552 18.3093 6.07492C18.417 6.33534 18.5966 6.59575 18.8481 6.85617C19.0995 7.10761 19.4767 7.30966 19.9795 7.46232C20.4914 7.61498 21.0975 7.69131 21.798 7.69131C22.4984 7.69131 23.1001 7.61947 23.6029 7.47579C24.1148 7.32313 24.4964 7.12108 24.7479 6.86964C24.9993 6.6182 25.1789 6.36228 25.2867 6.10186C25.3944 5.83246 25.4483 5.54959 25.4483 5.25326Z" fill="#AF4425"/>
<path d="M31.7089 10.2102V0.188578H41.1378C42.4848 0.188578 43.4366 0.404097 43.9934 0.835133C44.5591 1.25719 44.842 1.80047 44.842 2.46499V2.61316C44.842 3.16991 44.6624 3.61442 44.3032 3.94668C43.944 4.26995 43.5489 4.48098 43.1179 4.57976C43.3873 4.64262 43.6342 4.72793 43.8587 4.83569C44.0922 4.94345 44.3346 5.09162 44.5861 5.2802C44.8465 5.46877 45.0485 5.7247 45.1922 6.04798C45.3449 6.37126 45.4212 6.73943 45.4212 7.15251V7.31415C45.4212 9.24483 44.0114 10.2102 41.1917 10.2102H31.7089ZM39.9794 2.46499H35.5343V3.87933H39.9794C40.6618 3.87933 41.0031 3.64585 41.0031 3.17889V3.15195C41.0031 2.69398 40.6618 2.46499 39.9794 2.46499ZM40.2218 6.1288H35.5343V7.85294H40.2218C41.0121 7.85294 41.4072 7.56559 41.4072 6.99087V6.95046C41.4072 6.40269 41.0121 6.1288 40.2218 6.1288Z" fill="#AF4425"/>
<path d="M55.8621 6.08839L54.1783 2.6401L52.535 6.08839H55.8621ZM57.8691 10.2102L57.0878 8.59379H51.3631L50.5953 10.2102H46.716L51.6729 0.188578H56.8184L62.0582 10.2102H57.8691Z" fill="#AF4425"/>
<path d="M70.1817 10.3988H69.6564C68.48 10.3988 67.4473 10.282 66.5583 10.0485C65.6783 9.81506 64.9913 9.5277 64.4974 9.18646C64.0035 8.83625 63.6039 8.42317 63.2986 7.94723C62.9933 7.4713 62.7957 7.03128 62.7059 6.62719C62.6161 6.22309 62.5712 5.80103 62.5712 5.36102V4.97039C62.5712 4.52139 62.6116 4.09934 62.6924 3.70422C62.7822 3.3091 62.9753 2.87807 63.2716 2.41111C63.568 1.93517 63.9586 1.53108 64.4435 1.19882C64.9374 0.857583 65.6289 0.574715 66.5179 0.350217C67.4159 0.116739 68.462 0 69.6564 0H70.1817C71.0168 0 71.7801 0.0538794 72.4716 0.161638C73.172 0.269397 73.7557 0.408586 74.2227 0.579205C74.6986 0.749823 75.1162 0.956362 75.4754 1.19882C75.8435 1.4323 76.1309 1.67027 76.3374 1.91272C76.544 2.15518 76.7101 2.4156 76.8358 2.69398C76.9705 2.96338 77.0558 3.20583 77.0918 3.42135C77.1366 3.63687 77.1591 3.8479 77.1591 4.05444V4.22954H73.1855C72.8802 3.20583 71.7801 2.69398 69.8854 2.69398C67.6494 2.69398 66.5314 3.47523 66.5314 5.03774V5.19938C66.5314 5.49571 66.5808 5.77858 66.6795 6.04798C66.7873 6.31738 66.9579 6.58229 67.1914 6.8427C67.4338 7.10312 67.7841 7.30966 68.242 7.46232C68.709 7.61498 69.2613 7.69131 69.8988 7.69131C70.4556 7.69131 70.945 7.64192 71.367 7.54314C71.7891 7.43538 72.1079 7.31864 72.3234 7.19292C72.5389 7.0672 72.7185 6.91005 72.8622 6.72147C73.0059 6.5329 73.0912 6.3982 73.1181 6.31738C73.1451 6.23656 73.172 6.14676 73.199 6.04798H77.1591V6.2635C77.1591 6.56882 77.1142 6.88311 77.0244 7.20639C76.9346 7.52069 76.737 7.87988 76.4317 8.28398C76.1264 8.6791 75.7313 9.02931 75.2464 9.33463C74.7704 9.63097 74.0925 9.88241 73.2124 10.0889C72.3414 10.2955 71.3311 10.3988 70.1817 10.3988Z" fill="#AF4425"/>
<path d="M86.6955 10.3988H86.1701C84.9938 10.3988 83.9611 10.282 83.0721 10.0485C82.192 9.81506 81.5051 9.5277 81.0112 9.18646C80.5173 8.83625 80.1177 8.42317 79.8124 7.94723C79.507 7.4713 79.3095 7.03128 79.2197 6.62719C79.1299 6.22309 79.085 5.80103 79.085 5.36102V4.97039C79.085 4.52139 79.1254 4.09934 79.2062 3.70422C79.296 3.3091 79.4891 2.87807 79.7854 2.41111C80.0818 1.93517 80.4724 1.53108 80.9573 1.19882C81.4512 0.857583 82.1426 0.574715 83.0317 0.350217C83.9296 0.116739 84.9758 0 86.1701 0H86.6955C87.5306 0 88.2939 0.0538794 88.9853 0.161638C89.6858 0.269397 90.2695 0.408586 90.7364 0.579205C91.2124 0.749823 91.6299 0.956362 91.9891 1.19882C92.3573 1.4323 92.6447 1.67027 92.8512 1.91272C93.0577 2.15518 93.2239 2.4156 93.3496 2.69398C93.4843 2.96338 93.5696 3.20583 93.6055 3.42135C93.6504 3.63687 93.6729 3.8479 93.6729 4.05444V4.22954H89.6993C89.3939 3.20583 88.2939 2.69398 86.3991 2.69398C84.1631 2.69398 83.0451 3.47523 83.0451 5.03774V5.19938C83.0451 5.49571 83.0945 5.77858 83.1933 6.04798C83.3011 6.31738 83.4717 6.58229 83.7052 6.8427C83.9476 7.10312 84.2978 7.30966 84.7558 7.46232C85.2228 7.61498 85.775 7.69131 86.4126 7.69131C86.9694 7.69131 87.4588 7.64192 87.8808 7.54314C88.3029 7.43538 88.6217 7.31864 88.8372 7.19292C89.0527 7.0672 89.2323 6.91005 89.376 6.72147C89.5196 6.5329 89.605 6.3982 89.6319 6.31738C89.6588 6.23656 89.6858 6.14676 89.7127 6.04798H93.6729V6.2635C93.6729 6.56882 93.628 6.88311 93.5382 7.20639C93.4484 7.52069 93.2508 7.87988 92.9455 8.28398C92.6402 8.6791 92.2451 9.02931 91.7601 9.33463C91.2842 9.63097 90.6062 9.88241 89.7262 10.0889C88.8551 10.2955 87.8449 10.3988 86.6955 10.3988Z" fill="#AF4425"/>
<path d="M102.913 0H103.519C104.408 0 105.216 0.0628595 105.944 0.188578C106.68 0.305318 107.295 0.462466 107.789 0.660024C108.292 0.848603 108.727 1.08657 109.096 1.37393C109.473 1.65231 109.769 1.93517 109.985 2.22253C110.2 2.50989 110.371 2.82419 110.496 3.16542C110.631 3.50666 110.716 3.81647 110.752 4.09485C110.797 4.37322 110.82 4.66507 110.82 4.97039V5.37449C110.82 5.6798 110.797 5.97165 110.752 6.25003C110.716 6.52841 110.631 6.8427 110.496 7.19292C110.371 7.53416 110.2 7.85294 109.985 8.14928C109.778 8.43664 109.486 8.724 109.109 9.01135C108.732 9.29871 108.296 9.54117 107.802 9.73873C107.309 9.93629 106.693 10.0934 105.957 10.2102C105.23 10.3359 104.417 10.3988 103.519 10.3988H102.913C102.015 10.3988 101.198 10.3359 100.461 10.2102C99.734 10.0934 99.1189 9.93629 98.616 9.73873C98.1221 9.54117 97.6866 9.29871 97.3094 9.01135C96.9323 8.724 96.6359 8.43664 96.4204 8.14928C96.2139 7.85294 96.0432 7.53416 95.9085 7.19292C95.7828 6.8427 95.6975 6.52841 95.6526 6.25003C95.6167 5.97165 95.5987 5.6798 95.5987 5.37449V4.97039C95.5987 4.66507 95.6167 4.37322 95.6526 4.09485C95.6975 3.81647 95.7828 3.50666 95.9085 3.16542C96.0432 2.82419 96.2139 2.50989 96.4204 2.22253C96.6359 1.93517 96.9323 1.65231 97.3094 1.37393C97.6866 1.08657 98.1221 0.848603 98.616 0.660024C99.1189 0.462466 99.734 0.305318 100.461 0.188578C101.198 0.0628595 102.015 0 102.913 0ZM106.86 5.25326V5.06468C106.86 4.76834 106.806 4.49445 106.698 4.24301C106.59 3.9826 106.406 3.73116 106.146 3.4887C105.894 3.24624 105.517 3.05317 105.014 2.9095C104.511 2.76582 103.91 2.69398 103.209 2.69398C102.491 2.69398 101.88 2.76582 101.377 2.9095C100.874 3.05317 100.497 3.24624 100.246 3.4887C99.9944 3.73116 99.8148 3.9826 99.7071 4.24301C99.6083 4.49445 99.5589 4.76834 99.5589 5.06468V5.22632C99.5589 5.52265 99.6128 5.80552 99.7205 6.07492C99.8283 6.33534 100.008 6.59575 100.259 6.85617C100.511 7.10761 100.888 7.30966 101.391 7.46232C101.903 7.61498 102.509 7.69131 103.209 7.69131C103.91 7.69131 104.511 7.61947 105.014 7.47579C105.526 7.32313 105.908 7.12108 106.159 6.86964C106.411 6.6182 106.59 6.36228 106.698 6.10186C106.806 5.83246 106.86 5.54959 106.86 5.25326Z" fill="#AF4425"/>
<path d="M67.4553 23.2288H66.7403C64.3621 23.2288 63.173 22.5374 63.173 21.1545V21.0759H65.6245C65.6664 21.6259 66.1536 21.9009 67.086 21.9009H67.1567C67.4553 21.9009 67.7041 21.8878 67.9032 21.8616C68.1023 21.8302 68.2489 21.7883 68.3432 21.7359C68.4375 21.6783 68.5004 21.6207 68.5318 21.563C68.5685 21.5002 68.5868 21.4295 68.5868 21.3509V21.343C68.5868 21.233 68.558 21.1466 68.5004 21.0837C68.448 21.0156 68.317 20.958 68.1075 20.9109C67.9032 20.8585 67.6046 20.8271 67.2117 20.8166L66.1274 20.7852C64.2154 20.7328 63.2595 20.1461 63.2595 19.0251V18.9544C63.2595 18.7501 63.2883 18.5667 63.3459 18.4044C63.4035 18.2367 63.5083 18.0743 63.6602 17.9172C63.8121 17.76 64.0111 17.6291 64.2573 17.5243C64.5035 17.4196 64.8257 17.3357 65.2238 17.2729C65.6272 17.2048 66.0934 17.1707 66.6224 17.1707H67.3217C69.6895 17.1707 70.8733 17.7862 70.8733 19.0172V19.0801H68.4454C68.3982 18.6663 67.9268 18.4594 67.031 18.4594H66.9524C66.5858 18.4594 66.3029 18.4829 66.1038 18.5301C65.9048 18.572 65.7817 18.6217 65.7345 18.6794C65.6874 18.7318 65.6638 18.8025 65.6638 18.8915V18.8994C65.6638 18.9884 65.69 19.0618 65.7424 19.1194C65.8 19.177 65.9257 19.2294 66.1196 19.2765C66.3134 19.3184 66.5858 19.342 66.9367 19.3472L67.9896 19.3708C69.0949 19.4023 69.8859 19.5568 70.3626 19.8344C70.8393 20.1068 71.0776 20.539 71.0776 21.1309V21.2409C71.0776 21.4557 71.0514 21.6521 70.999 21.8302C70.9466 22.0031 70.8419 22.1812 70.6847 22.3645C70.5276 22.5426 70.3181 22.6945 70.0561 22.8202C69.7995 22.9407 69.4485 23.0402 69.0032 23.1188C68.5632 23.1922 68.0473 23.2288 67.4553 23.2288Z" fill="#282C31"/>
<path d="M76.1388 23.1188V17.2729H78.3703V19.3394H82.024V17.2729H84.2477V23.1188H82.024V20.8952H78.3703V23.1188H76.1388Z" fill="#282C31"/>
<path d="M93.6289 17.1629H93.9825C94.5011 17.1629 94.9726 17.1996 95.3969 17.2729C95.8264 17.341 96.1852 17.4327 96.4733 17.5479C96.7667 17.6579 97.0207 17.7967 97.2355 17.9643C97.4555 18.1267 97.6284 18.2917 97.7541 18.4594C97.8798 18.627 97.9793 18.8103 98.0527 19.0094C98.1312 19.2084 98.181 19.3892 98.202 19.5515C98.2281 19.7139 98.2412 19.8842 98.2412 20.0623V20.298C98.2412 20.4761 98.2281 20.6463 98.202 20.8087C98.181 20.9711 98.1312 21.1545 98.0527 21.3588C97.9793 21.5578 97.8798 21.7438 97.7541 21.9166C97.6336 22.0843 97.4634 22.2519 97.2433 22.4195C97.0233 22.5871 96.7693 22.7286 96.4812 22.8438C96.1931 22.959 95.8342 23.0507 95.4047 23.1188C94.9804 23.1922 94.5063 23.2288 93.9825 23.2288H93.6289C93.1051 23.2288 92.6284 23.1922 92.1989 23.1188C91.7746 23.0507 91.4157 22.959 91.1224 22.8438C90.8343 22.7286 90.5802 22.5871 90.3602 22.4195C90.1402 22.2519 89.9674 22.0843 89.8416 21.9166C89.7212 21.7438 89.6216 21.5578 89.5431 21.3588C89.4697 21.1545 89.42 20.9711 89.3938 20.8087C89.3728 20.6463 89.3623 20.4761 89.3623 20.298V20.0623C89.3623 19.8842 89.3728 19.7139 89.3938 19.5515C89.42 19.3892 89.4697 19.2084 89.5431 19.0094C89.6216 18.8103 89.7212 18.627 89.8416 18.4594C89.9674 18.2917 90.1402 18.1267 90.3602 17.9643C90.5802 17.7967 90.8343 17.6579 91.1224 17.5479C91.4157 17.4327 91.7746 17.341 92.1989 17.2729C92.6284 17.1996 93.1051 17.1629 93.6289 17.1629ZM95.9312 20.2273V20.1173C95.9312 19.9444 95.8997 19.7846 95.8369 19.638C95.774 19.4861 95.6666 19.3394 95.5147 19.198C95.368 19.0565 95.148 18.9439 94.8547 18.8601C94.5613 18.7763 94.2104 18.7344 93.8018 18.7344C93.3827 18.7344 93.0265 18.7763 92.7332 18.8601C92.4398 18.9439 92.2198 19.0565 92.0732 19.198C91.9265 19.3394 91.8217 19.4861 91.7589 19.638C91.7012 19.7846 91.6724 19.9444 91.6724 20.1173V20.2116C91.6724 20.3844 91.7039 20.5494 91.7667 20.7066C91.8296 20.8585 91.9343 21.0104 92.081 21.1623C92.2277 21.309 92.4477 21.4268 92.741 21.5159C93.0396 21.605 93.3932 21.6495 93.8018 21.6495C94.2104 21.6495 94.5613 21.6076 94.8547 21.5238C95.1533 21.4347 95.3759 21.3168 95.5226 21.1702C95.6692 21.0235 95.774 20.8742 95.8369 20.7223C95.8997 20.5652 95.9312 20.4001 95.9312 20.2273Z" fill="#282C31"/>
<path d="M108.226 21.288H105.586V23.1188H103.355V17.2729H108.226C110.075 17.2729 111 17.9172 111 19.2058V19.3315C111 20.6359 110.075 21.288 108.226 21.288ZM105.586 18.7344V19.8266H107.959C108.452 19.8266 108.698 19.6485 108.698 19.2922V19.2687C108.698 18.9125 108.452 18.7344 107.959 18.7344H105.586Z" fill="#282C31"/>
</svg>
