<svg width="27" height="27" viewBox="0 0 27 27" fill="none" xmlns="http://www.w3.org/2000/svg">
<path fill-rule="evenodd" clip-rule="evenodd" d="M10.81 1.77995C11.6011 -0.593294 14.9579 -0.593323 15.749 1.7799L17.5345 7.13628C17.5483 7.17751 17.5626 7.21096 17.5761 7.23668C17.9465 7.94612 18.2737 8.22645 18.4361 8.33163C18.4927 8.3683 18.5339 8.38674 18.5566 8.39537H23.9509C26.4116 8.39537 27.4985 11.494 25.5771 13.0311L21.6617 16.1634C21.3894 16.3812 21.274 16.7409 21.3687 17.0765L23.2314 23.6802C23.8914 26.0199 21.2686 27.9071 19.2599 26.5377L13.7682 22.7942C13.4734 22.5932 13.0856 22.5932 12.7907 22.7942L7.29933 26.5377C5.29061 27.907 2.66776 26.0199 3.32776 23.6801L5.19049 17.0765C5.28516 16.7409 5.16973 16.3812 4.89743 16.1634L0.9821 13.0311C-0.939345 11.494 0.147593 8.39537 2.60824 8.39537H8.00256C8.02522 8.38674 8.06641 8.3683 8.12305 8.33163C8.28549 8.22645 8.61263 7.94612 8.9831 7.23669C8.99653 7.21097 9.01087 7.17751 9.02461 7.13628L10.81 1.77995ZM8.08727 10.1307C8.08265 10.1307 8.07803 10.1308 8.07339 10.1308H2.60824C1.78803 10.1308 1.42571 11.1636 2.06619 11.676L5.98152 14.8083C6.79841 15.4618 7.14472 16.5408 6.86071 17.5477L4.99798 24.1512C4.77798 24.9312 5.65226 25.5602 6.32184 25.1038L11.8132 21.3603C12.6978 20.7573 13.8612 20.7573 14.7457 21.3602L20.2374 25.1038C20.9069 25.5603 21.7812 24.9312 21.5612 24.1513L19.6985 17.5477C19.4144 16.5408 19.7608 15.4618 20.5776 14.8083L24.493 11.676C25.1335 11.1636 24.7711 10.1308 23.9509 10.1308H18.4858C18.4811 10.1308 18.4765 10.1307 18.4719 10.1307L18.4718 10.1307C18.4669 10.1306 18.4618 10.1305 18.4564 10.1303C18.4457 10.13 18.4341 10.1294 18.4216 10.1287C18.3966 10.1271 18.3681 10.1245 18.3364 10.1203C18.2728 10.112 18.1966 10.0977 18.1099 10.0735C17.9353 10.0249 17.7243 9.93817 17.4929 9.78833C17.028 9.48732 16.5158 8.95529 16.0378 8.03998C15.9752 7.92014 15.9264 7.79964 15.8882 7.68508L14.1027 2.3287C13.839 1.53762 12.72 1.53763 12.4564 2.32871L10.671 7.68505C10.6328 7.79963 10.584 7.92014 10.5214 8.04C10.0434 8.9553 9.53112 9.48733 9.06625 9.78833C8.83483 9.93817 8.62389 10.0249 8.4493 10.0735C8.36259 10.0977 8.28638 10.112 8.2228 10.1203C8.19104 10.1245 8.16254 10.1271 8.13754 10.1287C8.12504 10.1294 8.11343 10.13 8.10272 10.1303C8.10034 10.1304 8.09799 10.1304 8.0957 10.1305C8.09284 10.1306 8.09007 10.1306 8.08736 10.1307L8.08727 10.1307Z" fill="black"/>
</svg>
